<mxfile host="app.diagrams.net" agent="Mozilla/5.0 (Windows NT 10.0; Win64; x64) AppleWebKit/537.36 (KHTML, like Gecko) Chrome/131.0.0.0 Safari/537.36" version="25.0.3">
  <diagram name="Page-1" id="NXVXX9Czso79KBBDQ060">
    <mxGraphModel dx="1434" dy="953" grid="1" gridSize="10" guides="1" tooltips="1" connect="1" arrows="1" fold="1" page="1" pageScale="1" pageWidth="850" pageHeight="1100" math="0" shadow="0">
      <root>
        <mxCell id="0" />
        <mxCell id="1" parent="0" />
        <mxCell id="bjVijm4IpRTGkiFybNOT-3" value="" style="edgeStyle=orthogonalEdgeStyle;rounded=0;orthogonalLoop=1;jettySize=auto;html=1;" edge="1" parent="1" source="bjVijm4IpRTGkiFybNOT-1" target="bjVijm4IpRTGkiFybNOT-2">
          <mxGeometry relative="1" as="geometry" />
        </mxCell>
        <mxCell id="bjVijm4IpRTGkiFybNOT-1" value="Заказ принят" style="rounded=1;whiteSpace=wrap;html=1;" vertex="1" parent="1">
          <mxGeometry x="340" y="40" width="120" height="60" as="geometry" />
        </mxCell>
        <mxCell id="bjVijm4IpRTGkiFybNOT-5" value="" style="edgeStyle=orthogonalEdgeStyle;rounded=0;orthogonalLoop=1;jettySize=auto;html=1;" edge="1" parent="1" source="bjVijm4IpRTGkiFybNOT-2" target="bjVijm4IpRTGkiFybNOT-4">
          <mxGeometry relative="1" as="geometry" />
        </mxCell>
        <mxCell id="bjVijm4IpRTGkiFybNOT-2" value="Собрать и проанализировать данные от заказчика" style="rounded=0;whiteSpace=wrap;html=1;" vertex="1" parent="1">
          <mxGeometry x="335" y="140" width="130" height="70" as="geometry" />
        </mxCell>
        <mxCell id="bjVijm4IpRTGkiFybNOT-7" value="" style="edgeStyle=orthogonalEdgeStyle;rounded=0;orthogonalLoop=1;jettySize=auto;html=1;" edge="1" parent="1" source="bjVijm4IpRTGkiFybNOT-4" target="bjVijm4IpRTGkiFybNOT-6">
          <mxGeometry relative="1" as="geometry" />
        </mxCell>
        <mxCell id="bjVijm4IpRTGkiFybNOT-4" value="Оценить ресурсы и сроки" style="rounded=0;whiteSpace=wrap;html=1;" vertex="1" parent="1">
          <mxGeometry x="340" y="250" width="120" height="60" as="geometry" />
        </mxCell>
        <mxCell id="bjVijm4IpRTGkiFybNOT-9" value="" style="edgeStyle=orthogonalEdgeStyle;rounded=0;orthogonalLoop=1;jettySize=auto;html=1;" edge="1" parent="1" source="bjVijm4IpRTGkiFybNOT-6" target="bjVijm4IpRTGkiFybNOT-8">
          <mxGeometry relative="1" as="geometry" />
        </mxCell>
        <mxCell id="bjVijm4IpRTGkiFybNOT-6" value="Разработать календарный план" style="rounded=0;whiteSpace=wrap;html=1;" vertex="1" parent="1">
          <mxGeometry x="340" y="350" width="120" height="60" as="geometry" />
        </mxCell>
        <mxCell id="bjVijm4IpRTGkiFybNOT-11" value="" style="edgeStyle=orthogonalEdgeStyle;rounded=0;orthogonalLoop=1;jettySize=auto;html=1;" edge="1" parent="1" source="bjVijm4IpRTGkiFybNOT-8" target="bjVijm4IpRTGkiFybNOT-10">
          <mxGeometry relative="1" as="geometry" />
        </mxCell>
        <mxCell id="bjVijm4IpRTGkiFybNOT-8" value="Согласовать с заказчиком" style="rounded=0;whiteSpace=wrap;html=1;" vertex="1" parent="1">
          <mxGeometry x="340" y="440" width="120" height="60" as="geometry" />
        </mxCell>
        <mxCell id="bjVijm4IpRTGkiFybNOT-13" value="" style="edgeStyle=orthogonalEdgeStyle;rounded=0;orthogonalLoop=1;jettySize=auto;html=1;" edge="1" parent="1" source="bjVijm4IpRTGkiFybNOT-10" target="bjVijm4IpRTGkiFybNOT-12">
          <mxGeometry relative="1" as="geometry" />
        </mxCell>
        <mxCell id="bjVijm4IpRTGkiFybNOT-16" value="" style="edgeStyle=orthogonalEdgeStyle;rounded=0;orthogonalLoop=1;jettySize=auto;html=1;" edge="1" parent="1" source="bjVijm4IpRTGkiFybNOT-10" target="bjVijm4IpRTGkiFybNOT-15">
          <mxGeometry relative="1" as="geometry" />
        </mxCell>
        <mxCell id="bjVijm4IpRTGkiFybNOT-10" value="Заказ согласован?" style="rhombus;whiteSpace=wrap;html=1;rounded=0;" vertex="1" parent="1">
          <mxGeometry x="350" y="540" width="100" height="100" as="geometry" />
        </mxCell>
        <mxCell id="bjVijm4IpRTGkiFybNOT-14" style="edgeStyle=orthogonalEdgeStyle;rounded=0;orthogonalLoop=1;jettySize=auto;html=1;entryX=0;entryY=0.5;entryDx=0;entryDy=0;" edge="1" parent="1" source="bjVijm4IpRTGkiFybNOT-12" target="bjVijm4IpRTGkiFybNOT-8">
          <mxGeometry relative="1" as="geometry">
            <Array as="points">
              <mxPoint x="130" y="590" />
              <mxPoint x="130" y="470" />
            </Array>
          </mxGeometry>
        </mxCell>
        <mxCell id="bjVijm4IpRTGkiFybNOT-12" value="Внести корректировки" style="whiteSpace=wrap;html=1;rounded=0;" vertex="1" parent="1">
          <mxGeometry x="170" y="560" width="120" height="60" as="geometry" />
        </mxCell>
        <mxCell id="bjVijm4IpRTGkiFybNOT-15" value="Утвердить окончательный план" style="whiteSpace=wrap;html=1;rounded=0;" vertex="1" parent="1">
          <mxGeometry x="520" y="560" width="120" height="60" as="geometry" />
        </mxCell>
        <mxCell id="bjVijm4IpRTGkiFybNOT-17" value="нет" style="text;html=1;align=center;verticalAlign=middle;resizable=0;points=[];autosize=1;strokeColor=none;fillColor=none;" vertex="1" parent="1">
          <mxGeometry x="310" y="560" width="40" height="30" as="geometry" />
        </mxCell>
        <mxCell id="bjVijm4IpRTGkiFybNOT-18" value="да" style="text;html=1;align=center;verticalAlign=middle;resizable=0;points=[];autosize=1;strokeColor=none;fillColor=none;" vertex="1" parent="1">
          <mxGeometry x="460" y="560" width="40" height="30" as="geometry" />
        </mxCell>
        <mxCell id="bjVijm4IpRTGkiFybNOT-23" value="" style="edgeStyle=orthogonalEdgeStyle;rounded=0;orthogonalLoop=1;jettySize=auto;html=1;" edge="1" parent="1" source="bjVijm4IpRTGkiFybNOT-19" target="bjVijm4IpRTGkiFybNOT-22">
          <mxGeometry relative="1" as="geometry" />
        </mxCell>
        <mxCell id="bjVijm4IpRTGkiFybNOT-19" value="1 день" style="shape=or;whiteSpace=wrap;html=1;" vertex="1" parent="1">
          <mxGeometry x="370" y="760" width="60" height="80" as="geometry" />
        </mxCell>
        <mxCell id="bjVijm4IpRTGkiFybNOT-21" style="edgeStyle=orthogonalEdgeStyle;rounded=0;orthogonalLoop=1;jettySize=auto;html=1;entryX=0.453;entryY=0.037;entryDx=0;entryDy=0;entryPerimeter=0;" edge="1" parent="1" source="bjVijm4IpRTGkiFybNOT-15" target="bjVijm4IpRTGkiFybNOT-19">
          <mxGeometry relative="1" as="geometry">
            <Array as="points">
              <mxPoint x="580" y="680" />
              <mxPoint x="397" y="680" />
            </Array>
          </mxGeometry>
        </mxCell>
        <mxCell id="bjVijm4IpRTGkiFybNOT-25" value="" style="edgeStyle=orthogonalEdgeStyle;rounded=0;orthogonalLoop=1;jettySize=auto;html=1;" edge="1" parent="1" source="bjVijm4IpRTGkiFybNOT-22" target="bjVijm4IpRTGkiFybNOT-24">
          <mxGeometry relative="1" as="geometry" />
        </mxCell>
        <mxCell id="bjVijm4IpRTGkiFybNOT-22" value="Сформировать команду" style="rounded=0;whiteSpace=wrap;html=1;" vertex="1" parent="1">
          <mxGeometry x="340" y="890" width="120" height="60" as="geometry" />
        </mxCell>
        <mxCell id="bjVijm4IpRTGkiFybNOT-27" value="" style="edgeStyle=orthogonalEdgeStyle;rounded=0;orthogonalLoop=1;jettySize=auto;html=1;" edge="1" parent="1" source="bjVijm4IpRTGkiFybNOT-24" target="bjVijm4IpRTGkiFybNOT-26">
          <mxGeometry relative="1" as="geometry" />
        </mxCell>
        <mxCell id="bjVijm4IpRTGkiFybNOT-24" value="Обсудить и утвердить распределение задач" style="whiteSpace=wrap;html=1;rounded=0;" vertex="1" parent="1">
          <mxGeometry x="340" y="1000" width="120" height="60" as="geometry" />
        </mxCell>
        <mxCell id="bjVijm4IpRTGkiFybNOT-29" value="" style="edgeStyle=orthogonalEdgeStyle;rounded=0;orthogonalLoop=1;jettySize=auto;html=1;" edge="1" parent="1" source="bjVijm4IpRTGkiFybNOT-26" target="bjVijm4IpRTGkiFybNOT-28">
          <mxGeometry relative="1" as="geometry" />
        </mxCell>
        <mxCell id="bjVijm4IpRTGkiFybNOT-26" value="Собрать и проанализировать данные" style="whiteSpace=wrap;html=1;rounded=0;" vertex="1" parent="1">
          <mxGeometry x="340" y="1110" width="120" height="60" as="geometry" />
        </mxCell>
        <mxCell id="bjVijm4IpRTGkiFybNOT-33" value="" style="edgeStyle=orthogonalEdgeStyle;rounded=0;orthogonalLoop=1;jettySize=auto;html=1;" edge="1" parent="1" source="bjVijm4IpRTGkiFybNOT-28" target="bjVijm4IpRTGkiFybNOT-32">
          <mxGeometry relative="1" as="geometry" />
        </mxCell>
        <mxCell id="bjVijm4IpRTGkiFybNOT-28" value="Разработать проект" style="whiteSpace=wrap;html=1;rounded=0;" vertex="1" parent="1">
          <mxGeometry x="340" y="1200" width="120" height="60" as="geometry" />
        </mxCell>
        <mxCell id="bjVijm4IpRTGkiFybNOT-35" value="" style="edgeStyle=orthogonalEdgeStyle;rounded=0;orthogonalLoop=1;jettySize=auto;html=1;" edge="1" parent="1" source="bjVijm4IpRTGkiFybNOT-32" target="bjVijm4IpRTGkiFybNOT-34">
          <mxGeometry relative="1" as="geometry" />
        </mxCell>
        <mxCell id="bjVijm4IpRTGkiFybNOT-32" value="Предоставить промежуточные результаты" style="whiteSpace=wrap;html=1;rounded=0;" vertex="1" parent="1">
          <mxGeometry x="340" y="1310" width="120" height="60" as="geometry" />
        </mxCell>
        <mxCell id="bjVijm4IpRTGkiFybNOT-38" style="edgeStyle=orthogonalEdgeStyle;rounded=0;orthogonalLoop=1;jettySize=auto;html=1;entryX=0.5;entryY=0;entryDx=0;entryDy=0;" edge="1" parent="1" source="bjVijm4IpRTGkiFybNOT-34" target="bjVijm4IpRTGkiFybNOT-36">
          <mxGeometry relative="1" as="geometry" />
        </mxCell>
        <mxCell id="bjVijm4IpRTGkiFybNOT-39" style="edgeStyle=orthogonalEdgeStyle;rounded=0;orthogonalLoop=1;jettySize=auto;html=1;entryX=0.5;entryY=0;entryDx=0;entryDy=0;" edge="1" parent="1" source="bjVijm4IpRTGkiFybNOT-34" target="bjVijm4IpRTGkiFybNOT-37">
          <mxGeometry relative="1" as="geometry">
            <Array as="points">
              <mxPoint x="550" y="1460" />
            </Array>
          </mxGeometry>
        </mxCell>
        <mxCell id="bjVijm4IpRTGkiFybNOT-34" value="Корректировки необходимы?" style="rhombus;whiteSpace=wrap;html=1;rounded=0;" vertex="1" parent="1">
          <mxGeometry x="330" y="1420" width="140" height="80" as="geometry" />
        </mxCell>
        <mxCell id="bjVijm4IpRTGkiFybNOT-42" style="edgeStyle=orthogonalEdgeStyle;rounded=0;orthogonalLoop=1;jettySize=auto;html=1;entryX=0;entryY=0.5;entryDx=0;entryDy=0;" edge="1" parent="1" source="bjVijm4IpRTGkiFybNOT-36" target="bjVijm4IpRTGkiFybNOT-32">
          <mxGeometry relative="1" as="geometry">
            <Array as="points">
              <mxPoint x="170" y="1550" />
              <mxPoint x="170" y="1340" />
            </Array>
          </mxGeometry>
        </mxCell>
        <mxCell id="bjVijm4IpRTGkiFybNOT-36" value="Внести корректировки" style="rounded=0;whiteSpace=wrap;html=1;" vertex="1" parent="1">
          <mxGeometry x="200" y="1520" width="120" height="60" as="geometry" />
        </mxCell>
        <mxCell id="bjVijm4IpRTGkiFybNOT-37" value="Подготовить документы" style="rounded=0;whiteSpace=wrap;html=1;" vertex="1" parent="1">
          <mxGeometry x="490" y="1520" width="120" height="60" as="geometry" />
        </mxCell>
        <mxCell id="bjVijm4IpRTGkiFybNOT-40" value="да" style="text;html=1;align=center;verticalAlign=middle;resizable=0;points=[];autosize=1;strokeColor=none;fillColor=none;" vertex="1" parent="1">
          <mxGeometry x="260" y="1428" width="40" height="30" as="geometry" />
        </mxCell>
        <mxCell id="bjVijm4IpRTGkiFybNOT-41" value="нет" style="text;html=1;align=center;verticalAlign=middle;resizable=0;points=[];autosize=1;strokeColor=none;fillColor=none;" vertex="1" parent="1">
          <mxGeometry x="480" y="1428" width="40" height="30" as="geometry" />
        </mxCell>
        <mxCell id="bjVijm4IpRTGkiFybNOT-49" value="" style="edgeStyle=orthogonalEdgeStyle;rounded=0;orthogonalLoop=1;jettySize=auto;html=1;" edge="1" parent="1" source="bjVijm4IpRTGkiFybNOT-43" target="bjVijm4IpRTGkiFybNOT-48">
          <mxGeometry relative="1" as="geometry" />
        </mxCell>
        <mxCell id="bjVijm4IpRTGkiFybNOT-43" value="Продемонстрировать работы эксперту" style="whiteSpace=wrap;html=1;rounded=0;" vertex="1" parent="1">
          <mxGeometry x="340" y="1760" width="120" height="60" as="geometry" />
        </mxCell>
        <mxCell id="bjVijm4IpRTGkiFybNOT-47" value="" style="edgeStyle=orthogonalEdgeStyle;rounded=0;orthogonalLoop=1;jettySize=auto;html=1;" edge="1" parent="1" source="bjVijm4IpRTGkiFybNOT-45" target="bjVijm4IpRTGkiFybNOT-43">
          <mxGeometry relative="1" as="geometry" />
        </mxCell>
        <mxCell id="bjVijm4IpRTGkiFybNOT-45" value="5 дней" style="shape=or;whiteSpace=wrap;html=1;" vertex="1" parent="1">
          <mxGeometry x="370" y="1640" width="60" height="80" as="geometry" />
        </mxCell>
        <mxCell id="bjVijm4IpRTGkiFybNOT-46" style="edgeStyle=orthogonalEdgeStyle;rounded=0;orthogonalLoop=1;jettySize=auto;html=1;entryX=0.511;entryY=0.02;entryDx=0;entryDy=0;entryPerimeter=0;" edge="1" parent="1" source="bjVijm4IpRTGkiFybNOT-37" target="bjVijm4IpRTGkiFybNOT-45">
          <mxGeometry relative="1" as="geometry" />
        </mxCell>
        <mxCell id="bjVijm4IpRTGkiFybNOT-51" value="" style="edgeStyle=orthogonalEdgeStyle;rounded=0;orthogonalLoop=1;jettySize=auto;html=1;" edge="1" parent="1" source="bjVijm4IpRTGkiFybNOT-48" target="bjVijm4IpRTGkiFybNOT-50">
          <mxGeometry relative="1" as="geometry" />
        </mxCell>
        <mxCell id="bjVijm4IpRTGkiFybNOT-55" value="" style="edgeStyle=orthogonalEdgeStyle;rounded=0;orthogonalLoop=1;jettySize=auto;html=1;" edge="1" parent="1" source="bjVijm4IpRTGkiFybNOT-48" target="bjVijm4IpRTGkiFybNOT-54">
          <mxGeometry relative="1" as="geometry" />
        </mxCell>
        <mxCell id="bjVijm4IpRTGkiFybNOT-48" value="Доработка нужна?" style="rhombus;whiteSpace=wrap;html=1;rounded=0;" vertex="1" parent="1">
          <mxGeometry x="337.5" y="1865" width="125" height="100" as="geometry" />
        </mxCell>
        <mxCell id="bjVijm4IpRTGkiFybNOT-52" style="edgeStyle=orthogonalEdgeStyle;rounded=0;orthogonalLoop=1;jettySize=auto;html=1;entryX=0;entryY=0.5;entryDx=0;entryDy=0;" edge="1" parent="1" source="bjVijm4IpRTGkiFybNOT-50" target="bjVijm4IpRTGkiFybNOT-43">
          <mxGeometry relative="1" as="geometry">
            <Array as="points">
              <mxPoint x="200" y="1790" />
            </Array>
          </mxGeometry>
        </mxCell>
        <mxCell id="bjVijm4IpRTGkiFybNOT-50" value="Доработать" style="whiteSpace=wrap;html=1;rounded=0;" vertex="1" parent="1">
          <mxGeometry x="150" y="1885" width="120" height="60" as="geometry" />
        </mxCell>
        <mxCell id="bjVijm4IpRTGkiFybNOT-53" value="да" style="text;html=1;align=center;verticalAlign=middle;resizable=0;points=[];autosize=1;strokeColor=none;fillColor=none;" vertex="1" parent="1">
          <mxGeometry x="280" y="1885" width="40" height="30" as="geometry" />
        </mxCell>
        <mxCell id="bjVijm4IpRTGkiFybNOT-57" value="" style="edgeStyle=orthogonalEdgeStyle;rounded=0;orthogonalLoop=1;jettySize=auto;html=1;" edge="1" parent="1" source="bjVijm4IpRTGkiFybNOT-54" target="bjVijm4IpRTGkiFybNOT-56">
          <mxGeometry relative="1" as="geometry">
            <Array as="points">
              <mxPoint x="580" y="2000" />
              <mxPoint x="400" y="2000" />
            </Array>
          </mxGeometry>
        </mxCell>
        <mxCell id="bjVijm4IpRTGkiFybNOT-54" value="Оформить экспертное заключение" style="whiteSpace=wrap;html=1;rounded=0;" vertex="1" parent="1">
          <mxGeometry x="520" y="1885" width="120" height="60" as="geometry" />
        </mxCell>
        <mxCell id="bjVijm4IpRTGkiFybNOT-59" value="" style="edgeStyle=orthogonalEdgeStyle;rounded=0;orthogonalLoop=1;jettySize=auto;html=1;" edge="1" parent="1" source="bjVijm4IpRTGkiFybNOT-56">
          <mxGeometry relative="1" as="geometry">
            <mxPoint x="400" y="2190" as="targetPoint" />
          </mxGeometry>
        </mxCell>
        <mxCell id="bjVijm4IpRTGkiFybNOT-56" value="Предоставить проект и заключение заказчику" style="whiteSpace=wrap;html=1;rounded=0;" vertex="1" parent="1">
          <mxGeometry x="340" y="2050" width="120" height="60" as="geometry" />
        </mxCell>
        <mxCell id="bjVijm4IpRTGkiFybNOT-60" value="Проект предоставлен" style="rounded=1;whiteSpace=wrap;html=1;" vertex="1" parent="1">
          <mxGeometry x="340" y="2190" width="120" height="60" as="geometry" />
        </mxCell>
      </root>
    </mxGraphModel>
  </diagram>
</mxfile>
